<svg width="48" height="48" viewBox="0 0 48 48" fill="none" xmlns="http://www.w3.org/2000/svg">
<path d="M21.4898 0.104957C18.7103 0.431959 15.7813 1.28415 13.4202 2.4237C10.9794 3.6128 9.19609 4.85144 7.32314 6.645C3.47762 10.3411 1.03681 15.0777 0.229848 20.3989C-0.0291772 22.0735 -0.0789897 25.294 0.130223 26.8101C0.498835 29.5549 1.23606 32.0025 2.43156 34.4104C6.40659 42.4666 14.4264 47.6986 23.2532 47.986C26.5806 48.095 29.6391 47.5698 32.6279 46.3807C37.3302 44.4979 41.1757 41.3865 44.005 37.185C44.8319 35.9563 46.0872 33.479 46.5953 32.0719C49.4346 24.2139 47.9004 15.1966 42.6202 8.72592C41.7934 7.70527 40.0599 5.98108 39.0437 5.14871C37.3102 3.74162 34.5805 2.19579 32.3688 1.39315C31.1634 0.947238 29.0513 0.412143 27.6367 0.204051C26.2021 -0.0139503 22.9144 -0.0734081 21.4898 0.104957ZM31.522 9.42947C32.4286 9.69702 33.2256 10.1727 33.9728 10.9059C34.989 11.8968 35.4971 13.0463 35.6664 14.6912L35.7362 15.3155H34.9691C34.5506 15.3155 34.182 15.3254 34.1422 15.3353C34.0924 15.3551 34.0525 15.2065 34.0425 15.0182C33.9529 13.7994 33.4946 12.7391 32.6876 11.9464C31.4523 10.7177 29.4498 10.4303 27.7761 11.2528C26.7002 11.7779 25.9829 12.7391 25.6342 14.1363C25.4549 14.82 25.425 15.147 25.4748 16.0587C25.5545 17.8225 26.0626 19.0116 27.278 20.3394C27.6068 20.6962 29.0613 21.9348 30.5158 23.0942C33.8533 25.7399 34.5905 26.5128 35.238 28.0587C35.8557 29.5252 35.9753 31.8142 35.507 33.4294C34.5805 36.6895 31.7512 38.4137 28.4137 37.7696C27.4773 37.5913 27.0389 37.3931 26.2618 36.8481C24.9368 35.9067 24.1398 34.3312 23.9804 32.28L23.9207 31.4674H24.7675H25.6143L25.6342 32.0917C25.684 34.5789 27.3577 36.3229 29.679 36.3229C32.0202 36.3229 33.664 34.787 34.0924 32.2106C34.4311 30.1594 33.8732 28.3956 32.3888 26.8299C32.0999 26.5327 31.2431 25.7796 30.466 25.1652L29.0613 24.0356L22.1274 24.0157L15.1835 23.986V30.8431V37.7102H14.3367H13.4899V23.5401V9.37001H14.3367H15.1835V15.9101V22.4501H21.1909H27.1883L26.5707 21.8754C25.2855 20.6863 24.4686 19.3584 24.0402 17.7432C23.7613 16.6929 23.7314 14.7705 23.9804 13.8291C24.2295 12.8977 24.8671 11.659 25.415 11.0447C26.222 10.1627 27.4374 9.48892 28.6628 9.27092C29.3602 9.15201 30.8545 9.23129 31.522 9.42947Z" fill="black"/>
</svg>
